<svg id="qoala_qoins" xmlns="http://www.w3.org/2000/svg" width="1310.5" height="1272.318" viewBox="0 0 1310.5 1272.318">
  <path id="Path_62" data-name="Path 62" d="M-478.668,7348.251s-25.35,42.952,28.076,116.413,78.4,88.112,78.4,88.112-9.353-104.051-35.073-150.815S-478.668,7348.251-478.668,7348.251Z" transform="translate(-796.525 -6424.252) rotate(-19)" fill="#95d046"/>
  <path id="Path_63" data-name="Path 63" d="M-478.668,7348.251s-25.35,42.952,28.076,116.413,78.4,88.112,78.4,88.112-42.628-70.415-68.348-117.179S-478.668,7348.251-478.668,7348.251Z" transform="translate(-796.525 -6424.252) rotate(-19)" fill="#75ab34"/>
  <path id="Path_57" data-name="Path 57" d="M-2103.237,6506.572s51.627,77.443,119.389,80.67,70.988-38.722,70.988-48.4-31.522-99.387-31.522-99.387Z" transform="translate(2911.547 -5800.039)" fill="#c5b3af"/>
  <g id="Group_6" data-name="Group 6" transform="translate(1660.467 -6656.682)">
    <ellipse id="Ellipse_17" data-name="Ellipse 17" cx="269.5" cy="265" rx="269.5" ry="265" transform="translate(-1052 7399)" fill="#e3a63b"/>
    <circle id="Ellipse_16" data-name="Ellipse 16" cx="260.5" cy="260.5" r="260.5" transform="translate(-1062 7408)" fill="#fedb41"/>
    <g id="Component_1_3" data-name="Component 1 – 3" transform="translate(-924.769 7505.759)">
      <g id="Ellipse_6" data-name="Ellipse 6" transform="translate(-0.231 -0.759)" fill="none" stroke="#e3a63b" stroke-width="48">
        <ellipse cx="123.5" cy="137" rx="123.5" ry="137" stroke="none"/>
        <ellipse cx="123.5" cy="137" rx="99.5" ry="113" fill="none"/>
      </g>
      <path id="Path_21" data-name="Path 21" d="M-2878.524,4667.662V4689.8s-14.97,61.622,61.941,61.589" transform="translate(3002.956 -4422.591)" fill="none" stroke="#e3a63b" stroke-width="48"/>
    </g>
  </g>
  <path id="Path_56" data-name="Path 56" d="M-2220.912,6534.566s25.635,76.9,83.314,67.291,57.678-131.379,57.678-131.379Z" transform="translate(2617.467 -5700.098)" fill="#c5b3af"/>
  <path id="Path_44" data-name="Path 44" d="M0,87.6S41.351-6.767,143.943.387,268,97.479,269.774,120.843s8.973,68.271-28.739,100.648-39.2,29.277-39.2,29.277Z" transform="matrix(0.999, -0.035, 0.035, 0.999, 823.791, 15.499)" fill="#d4c5c3"/>
  <path id="Path_54" data-name="Path 54" d="M0,78.027S41.5-6.027,144.45.345s124.49,86.486,126.274,107.3,9,60.813-28.84,89.653-39.339,26.078-39.339,26.078Z" transform="matrix(0.999, -0.035, 0.035, 0.999, 823.791, 42.918)" fill="#c5b3af"/>
  <path id="Path_45" data-name="Path 45" d="M0,70.154S33.081-5.436,115.287.312s99.242,77.74,100.772,96.431,7.2,54.707-23.032,80.635-31.386,23.446-31.386,23.446Z" transform="matrix(0.999, -0.035, 0.035, 0.999, 841.192, 50.509)" fill="#67544e"/>
  <path id="Path_41" data-name="Path 41" d="M-2325.021,6618.079c46.157-15.517,358.38,16.67,441.725,0s487.564-166.687,554.239-220.861,120.85-33.338,120.85,0-100.013,79.178-100.013,79.178,83.344,8.334,116.682,0,95.846-12.5,95.846,20.836-54.174,79.176-137.518,70.842-558.407,83.344-600.079,100.014-458.851,239.218-512.567,245.865-51.25-83.02-46.041-156.988S-2371.178,6633.6-2325.021,6618.079Z" transform="translate(2394.467 -5884.841)" fill="#67544e"/>
  <path id="Path_40" data-name="Path 40" d="M-2132.564,6329.508c-105.016,45.693-172.177,133.543-190.769,215.385s19.841,194.964,83.88,258.621,84.587,96.657,136.341,69.725,12.395-104.279,0-149.748-12.394-63.654-12.394-63.654,69.026,9.094,112.407,0,114.827-41.83,114.827-41.83,28.921,78.205,64.04,105.484,114.847,71.634,156.485,29.175-49.065-123.746-63.525-163.757,88.072-11.832,183.33-108.67-325.869-193.109-340.329-187.654S-2027.548,6283.815-2132.564,6329.508Z" transform="translate(2479.875 -5906.951)" fill="#d4c5c3"/>
  <path id="Path_42" data-name="Path 42" d="M-904.612,7504.584s-224.615,64.615-375.383-27.692-131.72-160.025-131.72-160.025,45.56-17.48,73.253-17.48,73.846,36,153.846,91.385S-904.612,7504.584-904.612,7504.584Z" transform="translate(1793.467 -6906.682)" fill="#c5b3af"/>
  <path id="Path_46" data-name="Path 46" d="M298.605.528S439.9,4.418,511.46,87.99s85.833,151.584,82.294,219.641-21.637,202.78-302.467,214.451S0,337.724,0,305.664C0,269.892-.206,166.287,109.122,64.649,189.524-10.159,298.605.528,298.605.528Z" transform="matrix(0.999, -0.035, 0.035, 0.999, 453.565, 92.912)" fill="#d4c5c3"/>
  <path id="Path_53" data-name="Path 53" d="M279.336,11.048S418.986,50.9,490.541,134.471s74.659,133.364,71.12,201.42,10.456,174.521-270.374,186.191S0,337.724,0,305.664C0,269.892-.206,166.287,109.122,64.649,189.524-10.159,279.336,11.048,279.336,11.048Z" transform="matrix(0.999, -0.035, 0.035, 0.999, 453.565, 97.911)" fill="#c5b3af" opacity="0.36"/>
  <path id="Path_43" data-name="Path 43" d="M-1410.711,7868.674s-32.519-3.97-59.87-31.3c-32.525-32.5-64.777-98.208-85.386-156.98-37.814-107.839-11.9-264.014-11.9-264.014,0,2.367-78.9,89.758-72.134,170.18s16.806,114.842,54.62,176.464,107.657,117.342,121.859,117.342c8.826,1.961,18.86,2.942,28.667,0S-1410.711,7868.674-1410.711,7868.674Z" transform="translate(1793.467 -6906.682)" fill="#c5b3af"/>
  <path id="Path_47" data-name="Path 47" d="M0,0A72.607,72.607,0,0,1,72.383,72.383V143.2A72.569,72.569,0,0,1,0,215.583" transform="matrix(0.999, -0.035, 0.035, 0.999, 783.603, 289.517)" fill="#52433e"/>
  <path id="Path_48" data-name="Path 48" d="M0,0A72.607,72.607,0,0,1,72.383,72.383V143.2A72.569,72.569,0,0,1,0,215.583" transform="matrix(-0.999, 0.035, -0.035, -0.999, 792.587, 504.915)" fill="#67544e"/>
  <path id="Path_49" data-name="Path 49" d="M1.02,49.536S-5.353,21.921,13.765,9.176s35.05-8.5,35.05-8.5" transform="matrix(0.883, 0.469, -0.469, 0.883, 656.7, 261.03)" fill="none" stroke="#67544e" stroke-linecap="round" stroke-width="24"/>
  <path id="Path_50" data-name="Path 50" d="M1.02,49.537S-5.353,21.921,13.765,9.176,48.815.68,48.815.68" transform="translate(895.232 238.098) rotate(45)" fill="none" stroke="#67544e" stroke-linecap="round" stroke-width="24"/>
  <path id="Path_51" data-name="Path 51" d="M293.577,94.723S248.683-7.317,137.923.419,3.778,105.41,1.855,130.674s-9.7,73.825,31.3,108.837,42.39,31.658,42.39,31.658S105.593,205.3,160.1,161.188,293.577,94.723,293.577,94.723Z" transform="matrix(0.996, -0.087, 0.087, 0.996, 379.134, 25.587)" fill="#d4c5c3"/>
  <path id="Path_52" data-name="Path 52" d="M235.141,75.861S199.19-5.878,110.475.337,3.069,84.4,1.5,104.613s-7.78,59.158,24.906,87.194,33.939,25.353,33.939,25.353,19-52.9,62.7-88.227S235.141,75.861,235.141,75.861Z" transform="translate(417.641 63.516) rotate(-7)" fill="#67544e"/>
  <path id="Path_55" data-name="Path 55" d="M-1429.578,7650.118c6.7-11.159,52.071-5.19,99.408-17.024s123.076-37.869,139.644-49.7,16.568,9.468,23.669,30.769,33.136,97.041,49.7,106.508,37.87,35.5,37.87,35.5-69.422-27.587-90.458-70.935-33.148-66.208-33.148-66.208-92.183,37.4-121.755,43.26-104.933-3.44-104.933-3.44S-1436.278,7661.277-1429.578,7650.118Z" transform="translate(1793.467 -6906.682)" fill="#c5b3af"/>
  <path id="Path_58" data-name="Path 58" d="M-703.81,7398.389s-6.893,15.813,0,25.949,25.138,22.3,38.113,21.084,32.437-15.407,32.437-15.407,17.029-12.975,4.055-31.626-48.25-10.137-48.25-10.137Z" transform="translate(1803.75 -6900.682)" fill="#7e6760"/>
  <path id="Path_59" data-name="Path 59" d="M-703.373,7402.252s-7.874,20.872,0,34.251,28.718,29.435,43.541,27.829S-622.776,7444-622.776,7444s19.454-17.126,4.632-41.744-55.121-13.379-55.121-13.379Z" transform="translate(1900.995 -6799.682)" fill="#7e6760"/>
  <g id="Group_5" data-name="Group 5" transform="translate(1613.467 -6667.682)">
    <path id="Path_60" data-name="Path 60" d="M-478.668,7348.251s-25.35,42.952,28.076,116.413,78.4,88.112,78.4,88.112-9.353-104.051-35.073-150.815S-478.668,7348.251-478.668,7348.251Z" transform="matrix(0.946, 0.326, -0.326, 0.946, 2364.308, 556.4)" fill="#95d046"/>
    <path id="Path_61" data-name="Path 61" d="M-478.668,7348.251s-25.35,42.952,28.076,116.413,78.4,88.112,78.4,88.112-42.628-70.415-68.348-117.179S-478.668,7348.251-478.668,7348.251Z" transform="matrix(0.946, 0.326, -0.326, 0.946, 2364.308, 556.4)" fill="#75ab34"/>
  </g>
</svg>
