<svg xmlns="http://www.w3.org/2000/svg" viewBox="0 0 165.2 144.72"><defs><style>.cls-1{fill:#d4c5c3;}.cls-2{fill:#c5b3af;}.cls-3{fill:#67544e;}.cls-4{fill:#52433e;}</style></defs><title>qoala_logo</title><g id="Layer_2" data-name="Layer 2"><g id="head"><path class="cls-1" d="M65.66,21.18S55.62-1.64,30.85.09.85,23.57.42,29.22s-2.17,16.51,7,24.34,9.48,7.08,9.48,7.08Z"/><path class="cls-2" d="M99.54,21.18s10-22.82,34.81-21.09,30,23.48,30.43,29.13,2.17,16.51-6.95,24.34-9.48,7.08-9.48,7.08Z"/><path class="cls-3" d="M103.45,25.57s8-18.28,27.88-16.89,24,18.8,24.37,23.32,1.74,13.23-5.57,19.5-7.59,5.67-7.59,5.67Z"/><path class="cls-3" d="M62.58,25.57S54.54,7.29,34.7,8.68,10.68,27.48,10.33,32,8.59,45.23,15.9,51.5s7.59,5.67,7.59,5.67Z"/><path class="cls-1" d="M82.57,19.44s34.34.87,51.73,19.56,20.86,33.9,20,49.12-3.47,53.89-71.72,56.5S10,94.85,10,87.68c0-8-.05-31.17,26.52-53.9C56.06,17.05,82.57,19.44,82.57,19.44Z"/><path class="cls-2" d="M83,19.44s34.34.87,51.72,19.56,20.87,33.9,20,49.12c-.39,6.77-3.7,29.34-21.08,42.38C114.43,144.91,83,144.62,83,144.62Z"/><rect class="cls-3" x="63.45" y="60.51" width="38.84" height="57.81" rx="19.42" ry="19.42"/><circle class="cls-3" cx="48.23" cy="65.73" r="4.78"/><circle class="cls-3" cx="115.61" cy="65.73" r="4.78"/><path class="cls-4" d="M82.87,60.51a19.48,19.48,0,0,1,19.42,19.42v19a19.47,19.47,0,0,1-19.42,19.42"/></g></g></svg>